<svg width="93" height="93" viewBox="0 0 93 93" fill="none" xmlns="http://www.w3.org/2000/svg">
<g clip-path="url(#clip0_88_97)">
<path d="M70.5987 0.848625C70.8687 0.577976 71.1894 0.363245 71.5425 0.216733C71.8956 0.0702204 72.2741 -0.00519562 72.6563 -0.00519562C73.0386 -0.00519562 73.4171 0.0702204 73.7702 0.216733C74.1233 0.363245 74.444 0.577976 74.714 0.848625L92.1515 18.2861C92.4221 18.5561 92.6368 18.8768 92.7834 19.2299C92.9299 19.583 93.0053 19.9615 93.0053 20.3437C93.0053 20.726 92.9299 21.1045 92.7834 21.4576C92.6368 21.8107 92.4221 22.1314 92.1515 22.4014L34.0265 80.5264C33.7476 80.8033 33.4154 81.0209 33.05 81.1657L3.98747 92.7907C3.45932 93.0022 2.88074 93.0539 2.32346 92.9396C1.76618 92.8253 1.25471 92.5499 0.852443 92.1476C0.45018 91.7454 0.174822 91.2339 0.0605045 90.6766C-0.0538126 90.1193 -0.002061 89.5408 0.209344 89.0126L11.8343 59.9501C11.9792 59.5847 12.1968 59.2525 12.4737 58.9736L70.5987 0.848625V0.848625ZM65.1408 14.5312L78.4688 27.8593L85.9844 20.3437L72.6563 7.01569L65.1408 14.5312ZM74.3594 31.9687L61.0313 18.6407L23.2501 56.4219V58.125H26.1563C26.9271 58.125 27.6663 58.4312 28.2114 58.9762C28.7564 59.5212 29.0626 60.2605 29.0626 61.0312V63.9375H31.9688C32.7396 63.9375 33.4788 64.2437 34.0239 64.7887C34.5689 65.3337 34.8751 66.073 34.8751 66.8437V69.75H36.5782L74.3594 31.9687V31.9687ZM17.6236 62.0484L17.0075 62.6646L8.12597 84.8741L30.3355 75.9926L30.9517 75.3765C30.3973 75.1694 29.9193 74.7979 29.5817 74.3118C29.2442 73.8257 29.063 73.2481 29.0626 72.6562V69.75H26.1563C25.3856 69.75 24.6463 69.4438 24.1013 68.8988C23.5563 68.3538 23.2501 67.6145 23.2501 66.8437V63.9375H20.3438C19.752 63.9371 19.1744 63.7559 18.6883 63.4184C18.2022 63.0808 17.8307 62.6028 17.6236 62.0484V62.0484Z" fill="#F3ECE4"/>
</g>
<defs>
<clipPath id="clip0_88_97">
<rect width="93" height="93" fill="white"/>
</clipPath>
</defs>
</svg>
